<?xml version="1.0" encoding="UTF-8"?>
<svg id="Calque_2" data-name="Calque 2" xmlns="http://www.w3.org/2000/svg" viewBox="0 0 500 500">
  <defs>
    <style>
      .cls-1 {
        fill: #c1000e;
      }
    </style>
  </defs>
  <g>
    <path d="M95.5,205.32l-11.18,41.68h-11.36l5.02-18.76-7.54,13.34h-12.02l-.36-13.28-5.02,18.7h-11.36l11.24-41.68h14l.96,23.52,13.58-23.52h14.06Z"/>
    <path d="M113.57,205.32l-11.24,41.68h-11.36l11.24-41.68h11.36Z"/>
    <path d="M127.15,214.79l-1.73,6.61h14.35c5.26,0,6.4,2.62,5.56,5.66l-3.83,14.23c-1.08,4.05-4.49,5.72-8.67,5.72h-24.64l2.57-9.53h21.17l1.79-6.61h-14.35c-5.26,0-6.4-2.68-5.62-5.72l3.83-14.17c1.08-3.99,4.55-5.66,8.67-5.66h23.21l-2.57,9.47h-19.74Z"/>
    <path d="M164.35,214.79l-1.73,6.61h14.35c5.26,0,6.4,2.62,5.56,5.66l-3.83,14.23c-1.08,4.05-4.49,5.72-8.67,5.72h-24.64l2.57-9.53h21.17l1.79-6.61h-14.35c-5.26,0-6.4-2.68-5.62-5.72l3.83-14.17c1.08-3.99,4.55-5.66,8.67-5.66h23.21l-2.57,9.47h-19.74Z"/>
    <path d="M205.14,205.32l-11.24,41.68h-11.36l11.24-41.68h11.36Z"/>
    <path d="M245.63,211.04c-.66,2.5-1.38,5.06-2.03,7.56l-4.07,15.13c-.66,2.5-1.38,5.06-2.03,7.56-1.08,4.05-4.55,5.72-8.67,5.72h-22.07c-4.13,0-6.7-1.67-5.62-5.72.72-2.5,1.38-5.06,2.03-7.56l4.13-15.13c.66-2.5,1.38-5.06,2.03-7.56,1.08-4.05,4.49-5.72,8.67-5.72h22.07c4.13,0,6.64,1.67,5.56,5.72ZM229.06,231.82l3.05-11.37c.54-1.91,1.08-3.75,1.56-5.66h-14.41l-6.1,22.69h14.35c.54-1.91,1.02-3.81,1.55-5.66Z"/>
    <path d="M290.97,205.32l-11.18,41.68h-14.23l-6.34-23.16-6.22,23.16h-11.36l11.24-41.68h14.59l6.04,22.87,6.16-22.87h11.3Z"/>
  </g>
  <g>
    <path class="cls-1" d="M271.94,253.05v41.62h-11.42v-8.74h-15.15l-4.75,8.74h-11.42l22.54-41.62h20.2ZM260.51,276.48v-13.97h-2.46l-7.57,13.97h10.04Z"/>
    <path class="cls-1" d="M294.48,262.51l-6.19,22.66h22.18l-2.53,9.51h-26.45c-4.15,0-6.73-1.66-5.65-5.71l8.24-30.27c1.02-3.75,4.27-5.65,8.72-5.65h26.39l-2.52,9.45h-22.18Z"/>
    <path class="cls-1" d="M350.27,262.45h-10.4l-8.72,32.17h-11.42l8.72-32.17h-10.46l2.59-9.46h32.28l-2.58,9.46Z"/>
    <path class="cls-1" d="M367.52,253.05l-11.3,41.62h-11.42l11.3-41.62h11.42Z"/>
    <path class="cls-1" d="M408.22,258.76c-.66,2.5-1.38,5.05-2.04,7.55l-4.09,15.1c-.66,2.5-1.38,5.06-2.04,7.55-1.08,4.04-4.57,5.71-8.72,5.71h-22.18c-4.15,0-6.73-1.66-5.65-5.71.72-2.5,1.38-5.05,2.04-7.55l4.15-15.1c.66-2.5,1.38-5.05,2.04-7.55,1.08-4.04,4.51-5.71,8.72-5.71h22.18c4.15,0,6.67,1.66,5.59,5.71ZM391.57,279.51l3.07-11.36c.54-1.9,1.08-3.75,1.56-5.65h-14.49l-6.13,22.66h14.43c.54-1.9,1.02-3.81,1.56-5.65Z"/>
    <path class="cls-1" d="M453.78,253.05l-11.24,41.62h-14.31l-6.37-23.13-6.25,23.13h-11.42l11.3-41.62h14.67l6.07,22.83,6.19-22.83h11.36Z"/>
  </g>
  <g>
    <path class="cls-1" d="M59.99,179.03h1.61l-1.57,5.89h3.66l-.4,1.47h-5.27l1.97-7.36Z"/>
    <path class="cls-1" d="M65.27,181.75c.43-.03.75-.14.96-.32.21-.18.34-.42.4-.72h-.65l.45-1.68h1.7l-.38,1.42c-.18.69-.47,1.19-.86,1.49-.39.3-.9.46-1.52.47l-.1-.66Z"/>
    <g>
      <path class="cls-1" d="M72.4,178.98h1.57l1.18,7.41h-1.67l-.23-1.65h-3.13l-1.12,1.65h-1.76l5.18-7.41ZM73.04,183.3l-.34-2.43-1.63,2.43h1.97Z"/>
      <path class="cls-1" d="M78.03,179.03h2.16c.72,0,1.31.09,1.78.26s.84.4,1.12.68c.54.53.8,1.25.8,2.16,0,.55-.1,1.08-.31,1.57-.21.49-.51.94-.91,1.34-.44.44-.99.78-1.63,1.01-.64.23-1.39.35-2.25.35h-2.75l1.99-7.36ZM78.99,184.93c.49,0,.96-.07,1.39-.23.43-.15.79-.37,1.09-.67.24-.24.42-.52.55-.83.13-.32.19-.65.19-1.01,0-.49-.14-.88-.43-1.17-.16-.16-.38-.29-.66-.39-.28-.1-.62-.15-1.05-.15h-.79l-1.21,4.44h.92Z"/>
      <path class="cls-1" d="M86.26,179.03h2.7c.55,0,1.02.06,1.4.18.38.12.7.31.95.55.38.38.57.87.57,1.48,0,.67-.2,1.23-.6,1.68-.4.45-1,.77-1.79.95l1.26,2.51h-1.85l-1.14-2.36h-1.22l-.63,2.36h-1.63l1.99-7.36ZM88.38,182.6c.25,0,.49-.03.71-.08s.41-.13.57-.23.29-.23.38-.38c.09-.15.14-.33.14-.53,0-.24-.08-.43-.23-.59-.2-.2-.56-.3-1.08-.3h-1.37l-.57,2.1h1.45Z"/>
      <path class="cls-1" d="M93.96,179.03h5.54l-.39,1.44h-3.92l-.4,1.5h3.44l-.39,1.42h-3.44l-.42,1.56h3.98l-.39,1.44h-5.59l1.99-7.36ZM97.62,176.59l1.36.6-1.7,1.26h-1.35l1.7-1.86Z"/>
      <path class="cls-1" d="M101,179.03h1.5l2.16,4.68,1.27-4.68h1.61l-1.99,7.36h-1.39l-2.24-4.83-1.3,4.83h-1.61l1.99-7.36Z"/>
      <path class="cls-1" d="M111.77,178.98h1.57l1.18,7.41h-1.67l-.23-1.65h-3.13l-1.12,1.65h-1.76l5.18-7.41ZM112.42,183.3l-.34-2.43-1.63,2.43h1.97Z"/>
      <path class="cls-1" d="M117.42,179.03h1.63l-1.59,5.89h3.69l-.4,1.47h-5.32l1.99-7.36Z"/>
      <path class="cls-1" d="M124.12,179.03h1.63l-1.99,7.36h-1.63l1.99-7.36Z"/>
      <path class="cls-1" d="M127.6,179.03h1.5l2.16,4.68,1.27-4.68h1.61l-1.99,7.36h-1.39l-2.24-4.83-1.3,4.83h-1.61l1.99-7.36Z"/>
      <path class="cls-1" d="M135.92,179.03h5.54l-.39,1.44h-3.92l-.4,1.5h3.44l-.39,1.42h-3.44l-.42,1.56h3.98l-.39,1.44h-5.59l1.99-7.36Z"/>
      <path class="cls-1" d="M141.37,184.71h1.71l-.46,1.68h-1.71l.46-1.68Z"/>
      <path class="cls-1" d="M144.74,184.71h1.71l-.46,1.68h-1.71l.46-1.68Z"/>
      <path class="cls-1" d="M148.12,184.71h1.71l-.46,1.68h-1.71l.46-1.68Z"/>
    </g>
  </g>
  <g>
    <path d="M347.89,236h5.54l-.39,1.44h-3.92l-.4,1.5h3.44l-.39,1.42h-3.44l-.42,1.55h3.98l-.39,1.44h-5.59l1.99-7.35Z"/>
    <path d="M354.93,236h1.5l2.16,4.68,1.27-4.68h1.61l-1.99,7.35h-1.39l-2.24-4.82-1.3,4.82h-1.61l1.99-7.35Z"/>
    <path d="M366.43,236h2.35c.53,0,.98.06,1.36.17s.7.31.97.57c.38.38.57.88.57,1.51,0,.46-.09.86-.28,1.22s-.44.66-.76.9c-.32.25-.7.43-1.14.56-.44.13-.91.19-1.42.19h-1.41l-.6,2.23h-1.63l1.99-7.35ZM368.16,239.71c.54,0,.98-.11,1.31-.34s.5-.55.5-.97c0-.24-.08-.45-.24-.61-.11-.11-.25-.19-.41-.25-.16-.05-.36-.08-.61-.08h-1.06l-.6,2.25h1.11Z"/>
    <path d="M373.61,236h2.7c.55,0,1.02.06,1.4.18.38.12.7.31.95.55.38.38.57.87.57,1.48,0,.67-.2,1.22-.6,1.68-.4.45-1,.77-1.79.95l1.26,2.51h-1.85l-1.14-2.35h-1.22l-.63,2.35h-1.63l1.99-7.35ZM375.73,239.56c.25,0,.49-.03.71-.08.22-.05.41-.13.57-.23s.29-.23.38-.38.14-.33.14-.53c0-.24-.08-.43-.23-.59-.2-.2-.56-.3-1.08-.3h-1.37l-.57,2.1h1.45Z"/>
    <path d="M381.31,236h5.53l-.39,1.44h-3.92l-.4,1.5h3.44l-.39,1.42h-3.44l-.42,1.55h3.98l-.39,1.44h-5.59l1.99-7.35Z"/>
    <path d="M388.35,236h1.69l1.07,3.11,2.76-3.11h1.88l-1.99,7.35h-1.65l1.29-4.8-2.9,3.14h-.04l-1.19-3.11-1.29,4.77h-1.63l1.99-7.35Z"/>
    <path d="M397.61,236h1.63l-1.99,7.35h-1.63l1.99-7.35Z"/>
    <path d="M401.09,236h5.54l-.39,1.44h-3.92l-.4,1.5h3.44l-.39,1.42h-3.44l-.42,1.55h3.98l-.39,1.44h-5.59l1.99-7.35ZM402.5,234.16l1.42-.6.69,1.86h-1.1l-1.01-1.26Z"/>
    <path d="M408.13,236h2.7c.55,0,1.02.06,1.4.18.38.12.7.31.95.55.38.38.57.87.57,1.48,0,.67-.2,1.22-.6,1.68-.4.45-1,.77-1.79.95l1.26,2.51h-1.85l-1.14-2.35h-1.22l-.63,2.35h-1.63l1.99-7.35ZM410.24,239.56c.25,0,.49-.03.71-.08.22-.05.41-.13.57-.23s.29-.23.38-.38c.09-.15.14-.33.14-.53,0-.24-.08-.43-.23-.59-.2-.2-.56-.3-1.08-.3h-1.37l-.57,2.1h1.45Z"/>
    <path d="M415.82,236h5.54l-.39,1.44h-3.92l-.4,1.5h3.44l-.39,1.42h-3.44l-.42,1.55h3.98l-.39,1.44h-5.59l1.99-7.35Z"/>
    <path d="M426.04,236h1.63l-1.59,5.88h3.69l-.4,1.47h-5.32l1.99-7.35Z"/>
    <path d="M432.73,236h1.63l-1.99,7.35h-1.63l1.99-7.35Z"/>
    <path d="M437.01,243.29c-.42-.13-.79-.32-1.11-.58-.33-.26-.59-.6-.79-1s-.3-.88-.3-1.42c0-.57.12-1.13.35-1.65.23-.53.55-1,.96-1.41s.89-.74,1.46-.98c.56-.25,1.18-.37,1.85-.37.39,0,.74.04,1.06.11.32.07.6.16.85.28.25.12.46.25.65.4.19.15.34.32.47.48l-1.21,1.06c-.22-.24-.48-.44-.79-.6-.31-.16-.69-.25-1.16-.25-.4,0-.76.08-1.11.24s-.64.37-.89.63c-.25.26-.45.57-.59.91s-.22.71-.22,1.1c0,.29.05.54.15.76.1.22.23.4.41.55.17.15.37.26.6.34.23.08.47.12.73.12.29,0,.54-.03.76-.08.22-.06.4-.12.57-.2l.35-1.2h-1.64l.38-1.4h3.22l-1.05,3.67c-.37.2-.77.37-1.2.5-.43.13-.93.19-1.49.19-.42,0-.84-.06-1.26-.19Z"/>
    <path d="M444.47,236h1.5l2.16,4.68,1.27-4.68h1.61l-1.99,7.35h-1.39l-2.24-4.82-1.3,4.82h-1.61l1.99-7.35Z"/>
    <path d="M452.79,236h5.53l-.39,1.44h-3.92l-.4,1.5h3.44l-.39,1.42h-3.44l-.42,1.55h3.98l-.39,1.44h-5.59l1.99-7.35Z"/>
  </g>
  <path d="M322.35,239.67c-.18-1.32-.4-2.64-.65-3.93l.98-.19c.25,1.31.47,2.65.65,3.98l-.99.14ZM320.13,229.16c-.37-1.27-.77-2.55-1.2-3.79l.95-.33c.44,1.26.85,2.56,1.22,3.85l-.96.28ZM316.43,219.08c-.54-1.2-1.12-2.41-1.73-3.58l.89-.46c.61,1.19,1.2,2.41,1.75,3.62l-.91.41ZM311.32,209.64c-.71-1.12-1.46-2.23-2.23-3.3l.81-.58c.77,1.08,1.53,2.21,2.26,3.34l-.84.54ZM304.92,201.02c-.86-1-1.76-1.99-2.67-2.95l.72-.69c.93.97,1.84,1.97,2.71,2.99l-.76.65ZM297.35,193.39c-.99-.87-2.02-1.72-3.07-2.54l.62-.79c1.06.83,2.1,1.7,3.11,2.58l-.66.75ZM288.79,186.91c-1.11-.72-2.25-1.42-3.4-2.08l.5-.87c1.16.67,2.31,1.38,3.44,2.11l-.54.84ZM279.38,181.7c-1.21-.56-2.44-1.09-3.66-1.58l.37-.93c1.24.5,2.49,1.04,3.71,1.6l-.42.91Z"/>
  <path d="M215.61,319.29l.21-.45-.22.45c-1.23-.57-2.44-1.17-3.6-1.78l.47-.88c1.15.61,2.35,1.2,3.54,1.76l-.4.92ZM206.09,314.03c-1.13-.73-2.25-1.5-3.33-2.29l.59-.81c1.06.77,2.17,1.53,3.28,2.25l-.54.84ZM197.4,307.46c-1.01-.88-2-1.8-2.97-2.74l.7-.72c.95.93,1.93,1.83,2.93,2.71l-.66.75ZM189.74,299.72c-.88-1.03-1.73-2.08-2.54-3.14l.79-.61c.8,1.04,1.64,2.08,2.51,3.1l-.76.65ZM183.28,290.95c-.72-1.13-1.41-2.3-2.07-3.47l.87-.49c.65,1.15,1.33,2.3,2.04,3.42l-.84.54ZM178.13,281.36c-.55-1.22-1.07-2.47-1.55-3.72l.93-.36c.48,1.23.99,2.47,1.53,3.68l-.91.41ZM174.39,271.14c-.37-1.28-.71-2.59-1.01-3.9l.97-.23c.3,1.29.64,2.59,1,3.86l-.96.28ZM172.13,260.49c-.18-1.33-.33-2.68-.45-4.01l1-.08c.11,1.31.26,2.64.44,3.96l-.99.14Z"/>
  <g>
    <path d="M277.14,167.88l-.52,1.94c30.82,11.15,53.43,39.58,56.06,73.53h2c-2.64-34.88-25.88-64.09-57.54-75.48Z"/>
    <path d="M162.72,256.67h-2.01c2.42,31.83,21.99,58.95,49.47,72.09l.53-1.96c-26.63-12.88-45.59-39.22-47.99-70.13Z"/>
  </g>
  <g>
    <path d="M326.99,303.95h-100.11l-13.88,51.4,4.86-14.18c9.4,3.09,19.43,4.77,29.85,4.77,20.44,0,39.4-6.43,54.98-17.37l3.19,4-1.34,1.07,2.72,3.41,5.34-4.25-2.72-3.41-1.34,1.07-3.09-3.88c7.72-5.83,14.52-12.81,20.18-20.67l114.44-1.95h-113.06ZM247.7,342.94c-10.08,0-19.78-1.63-28.87-4.61l1.1-3.22.66-2.14c8.53,2.79,17.64,4.31,27.11,4.31,18.42,0,35.51-5.71,49.6-15.46l3.51,4.4c-15.06,10.53-33.37,16.72-53.11,16.72ZM303.56,324.22l-3.5-4.39c5.34-4.01,10.21-8.62,14.51-13.73l7.28-.12c-5.22,6.9-11.38,13.04-18.28,18.25Z"/>
    <path d="M259.68,196.05l13.88-51.4-4.09,11.92c-7-1.63-14.29-2.51-21.78-2.51-21.42,0-41.23,7.06-57.21,18.98l-3.16-3.97,1.34-1.07-2.72-3.41-5.34,4.25,2.72,3.41,1.34-1.07,3.13,3.92c-6.83,5.47-12.88,11.87-18,18.98l-114.37,1.95h204.26ZM180.84,193.91l-7.27.12c4.67-6.16,10.08-11.73,16.1-16.56l3.5,4.39c-4.5,3.6-8.63,7.64-12.33,12.05ZM195.86,179.79l-3.5-4.4c15.47-11.51,34.62-18.33,55.34-18.33,7.15,0,14.11.83,20.8,2.36l-1.84,5.38c-6.11-1.35-12.45-2.08-18.96-2.08-19.41,0-37.34,6.34-51.83,17.06Z"/>
  </g>
</svg>