<svg width="418" height="212" viewBox="0 0 418 212" fill="none" xmlns="http://www.w3.org/2000/svg">
<g clip-path="url(#clip0_2347_283)">
<path d="M54.5001 61.32L43.3201 103H31.9601L36.9801 84.24L29.4401 97.58H17.4201L17.0601 84.3L12.0401 103H0.680054L11.9201 61.32H25.9201L26.8801 84.84L40.4601 61.32H54.5201H54.5001Z" fill="black"/>
<path d="M72.5701 61.32L61.3301 103H49.9701L61.2101 61.32H72.5701Z" fill="black"/>
<path d="M86.1501 70.79L84.4201 77.4H98.7701C104.03 77.4 105.17 80.02 104.33 83.06L100.5 97.29C99.4201 101.34 96.0101 103.01 91.8301 103.01H67.1901L69.7601 93.48H90.9301L92.7201 86.87H78.3701C73.1101 86.87 71.9701 84.19 72.7501 81.15L76.5801 66.98C77.6601 62.99 81.1301 61.32 85.2501 61.32H108.46L105.89 70.79H86.1501Z" fill="black"/>
<path d="M123.35 70.79L121.62 77.4H135.97C141.23 77.4 142.37 80.02 141.53 83.06L137.7 97.29C136.62 101.34 133.21 103.01 129.03 103.01H104.39L106.96 93.48H128.13L129.92 86.87H115.57C110.31 86.87 109.17 84.19 109.95 81.15L113.78 66.98C114.86 62.99 118.33 61.32 122.45 61.32H145.66L143.09 70.79H123.35Z" fill="black"/>
<path d="M164.14 61.32L152.9 103H141.54L152.78 61.32H164.14Z" fill="black"/>
<path d="M204.63 67.04C203.97 69.54 203.25 72.1 202.6 74.6L198.53 89.73C197.87 92.23 197.15 94.79 196.5 97.29C195.42 101.34 191.95 103.01 187.83 103.01H165.76C161.63 103.01 159.06 101.34 160.14 97.29C160.86 94.79 161.52 92.23 162.17 89.73L166.3 74.6C166.96 72.1 167.68 69.54 168.33 67.04C169.41 62.99 172.82 61.32 177 61.32H199.07C203.2 61.32 205.71 62.99 204.63 67.04ZM188.06 87.82L191.11 76.45C191.65 74.54 192.19 72.7 192.67 70.79H178.26L172.16 93.48H186.51C187.05 91.57 187.53 89.67 188.06 87.82Z" fill="black"/>
<path d="M249.97 61.32L238.79 103H224.56L218.22 79.84L212 103H200.64L211.88 61.32H226.47L232.51 84.19L238.67 61.32H249.97Z" fill="black"/>
<path d="M230.94 109.05V150.67H219.52V141.93H204.37L199.62 150.67H188.2L210.74 109.05H230.94ZM219.51 132.48V118.51H217.05L209.48 132.48H219.52H219.51Z" fill="#C1000E"/>
<path d="M253.48 118.51L247.29 141.17H269.47L266.94 150.68H240.49C236.34 150.68 233.76 149.02 234.84 144.97L243.08 114.7C244.1 110.95 247.35 109.05 251.8 109.05H278.19L275.67 118.5H253.49L253.48 118.51Z" fill="#C1000E"/>
<path d="M309.27 118.45H298.87L290.15 150.62H278.73L287.45 118.45H276.99L279.58 108.99H311.86L309.28 118.45H309.27Z" fill="#C1000E"/>
<path d="M326.52 109.05L315.22 150.67H303.8L315.1 109.05H326.52Z" fill="#C1000E"/>
<path d="M367.22 114.76C366.56 117.26 365.84 119.81 365.18 122.31L361.09 137.41C360.43 139.91 359.71 142.47 359.05 144.96C357.97 149 354.48 150.67 350.33 150.67H328.15C324 150.67 321.42 149.01 322.5 144.96C323.22 142.46 323.88 139.91 324.54 137.41L328.69 122.31C329.35 119.81 330.07 117.26 330.73 114.76C331.81 110.72 335.24 109.05 339.45 109.05H361.63C365.78 109.05 368.3 110.71 367.22 114.76ZM350.57 135.51L353.64 124.15C354.18 122.25 354.72 120.4 355.2 118.5H340.71L334.58 141.16H349.01C349.55 139.26 350.03 137.35 350.57 135.51Z" fill="#C1000E"/>
<path d="M412.78 109.05L401.54 150.67H387.23L380.86 127.54L374.61 150.67H363.19L374.49 109.05H389.16L395.23 131.88L401.42 109.05H412.78Z" fill="#C1000E"/>
<path d="M18.99 35.03H20.6L19.03 40.92H22.69L22.29 42.39H17.02L18.99 35.03Z" fill="#C1000E"/>
<path d="M24.27 37.75C24.7 37.72 25.02 37.61 25.23 37.43C25.44 37.25 25.57 37.01 25.63 36.71H24.98L25.43 35.03H27.13L26.75 36.45C26.57 37.14 26.28 37.64 25.89 37.94C25.5 38.24 24.99 38.4 24.37 38.41L24.27 37.75Z" fill="#C1000E"/>
<path d="M31.4 34.98H32.97L34.15 42.39H32.48L32.25 40.74H29.12L28 42.39H26.24L31.42 34.98H31.4ZM32.04 39.3L31.7 36.87L30.07 39.3H32.04Z" fill="#C1000E"/>
<path d="M37.03 35.03H39.19C39.91 35.03 40.5 35.12 40.97 35.29C41.44 35.46 41.81 35.69 42.09 35.97C42.63 36.5 42.89 37.22 42.89 38.13C42.89 38.68 42.79 39.21 42.58 39.7C42.37 40.19 42.07 40.64 41.67 41.04C41.23 41.48 40.68 41.82 40.04 42.05C39.4 42.28 38.65 42.4 37.79 42.4H35.04L37.03 35.04V35.03ZM37.99 40.93C38.48 40.93 38.95 40.86 39.38 40.7C39.81 40.55 40.17 40.33 40.47 40.03C40.71 39.79 40.89 39.51 41.02 39.2C41.15 38.88 41.21 38.55 41.21 38.19C41.21 37.7 41.07 37.31 40.78 37.02C40.62 36.86 40.4 36.73 40.12 36.63C39.84 36.53 39.5 36.48 39.07 36.48H38.28L37.07 40.92H37.99V40.93Z" fill="#C1000E"/>
<path d="M45.26 35.03H47.96C48.51 35.03 48.98 35.09 49.36 35.21C49.74 35.33 50.06 35.52 50.31 35.76C50.69 36.14 50.88 36.63 50.88 37.24C50.88 37.91 50.68 38.47 50.28 38.92C49.88 39.37 49.28 39.69 48.49 39.87L49.75 42.38H47.9L46.76 40.02H45.54L44.91 42.38H43.28L45.27 35.02L45.26 35.03ZM47.38 38.6C47.63 38.6 47.87 38.57 48.09 38.52C48.31 38.47 48.5 38.39 48.66 38.29C48.82 38.19 48.95 38.06 49.04 37.91C49.13 37.76 49.18 37.58 49.18 37.38C49.18 37.14 49.1 36.95 48.95 36.79C48.75 36.59 48.39 36.49 47.87 36.49H46.5L45.93 38.59H47.38V38.6Z" fill="#C1000E"/>
<path d="M52.96 35.03H58.5L58.11 36.47H54.19L53.79 37.97H57.23L56.84 39.39H53.4L52.98 40.95H56.96L56.57 42.39H50.98L52.97 35.03H52.96ZM56.62 32.59L57.98 33.19L56.28 34.45H54.93L56.63 32.59H56.62Z" fill="#C1000E"/>
<path d="M60 35.03H61.5L63.66 39.71L64.93 35.03H66.54L64.55 42.39H63.16L60.92 37.56L59.62 42.39H58.01L60 35.03Z" fill="#C1000E"/>
<path d="M70.77 34.98H72.34L73.52 42.39H71.85L71.62 40.74H68.49L67.37 42.39H65.61L70.79 34.98H70.77ZM71.42 39.3L71.08 36.87L69.45 39.3H71.42Z" fill="#C1000E"/>
<path d="M76.4199 35.03H78.0499L76.4599 40.92H80.1499L79.7499 42.39H74.4299L76.4199 35.03Z" fill="#C1000E"/>
<path d="M83.12 35.03H84.75L82.76 42.39H81.13L83.12 35.03Z" fill="#C1000E"/>
<path d="M86.6 35.03H88.1L90.26 39.71L91.53 35.03H93.14L91.15 42.39H89.76L87.52 37.56L86.22 42.39H84.61L86.6 35.03Z" fill="#C1000E"/>
<path d="M94.9199 35.03H100.46L100.07 36.47H96.1499L95.7499 37.97H99.1899L98.7999 39.39H95.3599L94.9399 40.95H98.9199L98.5299 42.39H92.9399L94.9299 35.03H94.9199Z" fill="#C1000E"/>
<path d="M100.37 40.71H102.08L101.62 42.39H99.91L100.37 40.71Z" fill="#C1000E"/>
<path d="M103.74 40.71H105.45L104.99 42.39H103.28L103.74 40.71Z" fill="#C1000E"/>
<path d="M107.12 40.71H108.83L108.37 42.39H106.66L107.12 40.71Z" fill="#C1000E"/>
<path d="M306.89 92H312.43L312.04 93.44H308.12L307.72 94.94H311.16L310.77 96.36H307.33L306.91 97.91H310.89L310.5 99.35H304.91L306.9 92H306.89Z" fill="black"/>
<path d="M313.93 92H315.43L317.59 96.68L318.86 92H320.47L318.48 99.35H317.09L314.85 94.53L313.55 99.35H311.94L313.93 92Z" fill="black"/>
<path d="M325.43 92H327.78C328.31 92 328.76 92.06 329.14 92.17C329.52 92.28 329.84 92.48 330.11 92.74C330.49 93.12 330.68 93.62 330.68 94.25C330.68 94.71 330.59 95.11 330.4 95.47C330.21 95.83 329.96 96.13 329.64 96.37C329.32 96.62 328.94 96.8 328.5 96.93C328.06 97.06 327.59 97.12 327.08 97.12H325.67L325.07 99.35H323.44L325.43 92ZM327.16 95.71C327.7 95.71 328.14 95.6 328.47 95.37C328.8 95.14 328.97 94.82 328.97 94.4C328.97 94.16 328.89 93.95 328.73 93.79C328.62 93.68 328.48 93.6 328.32 93.54C328.16 93.49 327.96 93.46 327.71 93.46H326.65L326.05 95.71H327.16Z" fill="black"/>
<path d="M332.61 92H335.31C335.86 92 336.33 92.06 336.71 92.18C337.09 92.3 337.41 92.49 337.66 92.73C338.04 93.11 338.23 93.6 338.23 94.21C338.23 94.88 338.03 95.43 337.63 95.89C337.23 96.34 336.63 96.66 335.84 96.84L337.1 99.35H335.25L334.11 97H332.89L332.26 99.35H330.63L332.62 92H332.61ZM334.73 95.56C334.98 95.56 335.22 95.53 335.44 95.48C335.66 95.43 335.85 95.35 336.01 95.25C336.17 95.15 336.3 95.02 336.39 94.87C336.48 94.72 336.53 94.54 336.53 94.34C336.53 94.1 336.45 93.91 336.3 93.75C336.1 93.55 335.74 93.45 335.22 93.45H333.85L333.28 95.55H334.73V95.56Z" fill="black"/>
<path d="M340.31 92H345.84L345.45 93.44H341.53L341.13 94.94H344.57L344.18 96.36H340.74L340.32 97.91H344.3L343.91 99.35H338.32L340.31 92Z" fill="black"/>
<path d="M347.35 92H349.04L350.11 95.11L352.87 92H354.75L352.76 99.35H351.11L352.4 94.55L349.5 97.69H349.46L348.27 94.58L346.98 99.35H345.35L347.34 92H347.35Z" fill="black"/>
<path d="M356.61 92H358.24L356.25 99.35H354.62L356.61 92Z" fill="black"/>
<path d="M360.09 92H365.63L365.24 93.44H361.32L360.92 94.94H364.36L363.97 96.36H360.53L360.11 97.91H364.09L363.7 99.35H358.11L360.1 92H360.09ZM361.5 90.16L362.92 89.56L363.61 91.42H362.51L361.5 90.16Z" fill="black"/>
<path d="M367.13 92H369.83C370.38 92 370.85 92.06 371.23 92.18C371.61 92.3 371.93 92.49 372.18 92.73C372.56 93.11 372.75 93.6 372.75 94.21C372.75 94.88 372.55 95.43 372.15 95.89C371.75 96.34 371.15 96.66 370.36 96.84L371.62 99.35H369.77L368.63 97H367.41L366.78 99.35H365.15L367.14 92H367.13ZM369.24 95.56C369.49 95.56 369.73 95.53 369.95 95.48C370.17 95.43 370.36 95.35 370.52 95.25C370.68 95.15 370.81 95.02 370.9 94.87C370.99 94.72 371.04 94.54 371.04 94.34C371.04 94.1 370.96 93.91 370.81 93.75C370.61 93.55 370.25 93.45 369.73 93.45H368.36L367.79 95.55H369.24V95.56Z" fill="black"/>
<path d="M374.82 92H380.36L379.97 93.44H376.05L375.65 94.94H379.09L378.7 96.36H375.26L374.84 97.91H378.82L378.43 99.35H372.84L374.83 92H374.82Z" fill="black"/>
<path d="M385.04 92H386.67L385.08 97.88H388.77L388.37 99.35H383.05L385.04 92Z" fill="black"/>
<path d="M391.73 92H393.36L391.37 99.35H389.74L391.73 92Z" fill="black"/>
<path d="M396.01 99.29C395.59 99.16 395.22 98.97 394.9 98.71C394.57 98.45 394.31 98.11 394.11 97.71C393.91 97.31 393.81 96.83 393.81 96.29C393.81 95.72 393.93 95.16 394.16 94.64C394.39 94.11 394.71 93.64 395.12 93.23C395.53 92.82 396.01 92.49 396.58 92.25C397.14 92 397.76 91.88 398.43 91.88C398.82 91.88 399.17 91.92 399.49 91.99C399.81 92.06 400.09 92.15 400.34 92.27C400.59 92.39 400.8 92.52 400.99 92.67C401.18 92.82 401.33 92.99 401.46 93.15L400.25 94.21C400.03 93.97 399.77 93.77 399.46 93.61C399.15 93.45 398.77 93.36 398.3 93.36C397.9 93.36 397.54 93.44 397.19 93.6C396.84 93.76 396.55 93.97 396.3 94.23C396.05 94.49 395.85 94.8 395.71 95.14C395.57 95.48 395.49 95.85 395.49 96.24C395.49 96.53 395.54 96.78 395.64 97C395.74 97.22 395.87 97.4 396.05 97.55C396.22 97.7 396.42 97.81 396.65 97.89C396.88 97.97 397.12 98.01 397.38 98.01C397.67 98.01 397.92 97.98 398.14 97.93C398.36 97.87 398.54 97.81 398.71 97.73L399.06 96.53H397.42L397.8 95.13H401.02L399.97 98.8C399.6 99 399.2 99.17 398.77 99.3C398.34 99.43 397.84 99.49 397.28 99.49C396.86 99.49 396.44 99.43 396.02 99.3L396.01 99.29Z" fill="black"/>
<path d="M403.47 92H404.97L407.13 96.68L408.4 92H410.01L408.02 99.35H406.63L404.39 94.53L403.09 99.35H401.48L403.47 92Z" fill="black"/>
<path d="M411.79 92H417.32L416.93 93.44H413.01L412.61 94.94H416.05L415.66 96.36H412.22L411.8 97.91H415.78L415.39 99.35H409.8L411.79 92Z" fill="black"/>
<path d="M281.35 95.67C281.17 94.35 280.95 93.03 280.7 91.74L281.68 91.55C281.93 92.86 282.15 94.2 282.33 95.53L281.34 95.67H281.35ZM279.13 85.16C278.76 83.89 278.36 82.61 277.93 81.37L278.88 81.04C279.32 82.3 279.73 83.6 280.1 84.89L279.14 85.17L279.13 85.16ZM275.43 75.08C274.89 73.88 274.31 72.67 273.7 71.5L274.59 71.04C275.2 72.23 275.79 73.45 276.34 74.66L275.43 75.07V75.08ZM270.32 65.64C269.61 64.52 268.86 63.41 268.09 62.34L268.9 61.76C269.67 62.84 270.43 63.97 271.16 65.1L270.32 65.64ZM263.92 57.02C263.06 56.02 262.16 55.03 261.25 54.07L261.97 53.38C262.9 54.35 263.81 55.35 264.68 56.37L263.92 57.02ZM256.35 49.39C255.36 48.52 254.33 47.67 253.28 46.85L253.9 46.06C254.96 46.89 256 47.76 257.01 48.64L256.35 49.39ZM247.79 42.91C246.68 42.19 245.54 41.49 244.39 40.83L244.89 39.96C246.05 40.63 247.2 41.34 248.33 42.07L247.79 42.91ZM238.38 37.7C237.17 37.14 235.94 36.61 234.72 36.12L235.09 35.19C236.33 35.69 237.58 36.23 238.8 36.79L238.38 37.7Z" fill="black"/>
<path d="M174.61 175.29L174.82 174.84L174.6 175.29C173.37 174.72 172.16 174.12 171 173.51L171.47 172.63C172.62 173.24 173.82 173.83 175.01 174.39L174.61 175.31V175.29ZM165.09 170.03C163.96 169.3 162.84 168.53 161.76 167.74L162.35 166.93C163.41 167.7 164.52 168.46 165.63 169.18L165.09 170.02V170.03ZM156.4 163.46C155.39 162.58 154.4 161.66 153.43 160.72L154.13 160C155.08 160.93 156.06 161.83 157.06 162.71L156.4 163.46ZM148.74 155.72C147.86 154.69 147.01 153.64 146.2 152.58L146.99 151.97C147.79 153.01 148.63 154.05 149.5 155.07L148.74 155.72ZM142.28 146.95C141.56 145.82 140.87 144.65 140.21 143.48L141.08 142.99C141.73 144.14 142.41 145.29 143.12 146.41L142.28 146.95ZM137.13 137.36C136.58 136.14 136.06 134.89 135.58 133.64L136.51 133.28C136.99 134.51 137.5 135.75 138.04 136.96L137.13 137.37V137.36ZM133.39 127.14C133.02 125.86 132.68 124.55 132.38 123.24L133.35 123.01C133.65 124.3 133.99 125.6 134.35 126.87L133.39 127.15V127.14ZM131.13 116.49C130.95 115.16 130.8 113.81 130.68 112.48L131.68 112.4C131.79 113.71 131.94 115.04 132.12 116.36L131.13 116.5V116.49Z" fill="black"/>
<path d="M236.14 23.88L235.62 25.82C266.44 36.97 289.05 65.4 291.68 99.35H293.68C291.04 64.47 267.8 35.26 236.14 23.87V23.88Z" fill="black"/>
<path d="M121.72 112.67H119.71C122.13 144.5 141.7 171.62 169.18 184.76L169.71 182.8C143.08 169.92 124.12 143.58 121.72 112.67Z" fill="black"/>
<path d="M285.99 159.95H185.88L172 211.35L176.86 197.17C186.26 200.26 196.29 201.94 206.71 201.94C227.15 201.94 246.11 195.51 261.69 184.57L264.88 188.57L263.54 189.64L266.26 193.05L271.6 188.8L268.88 185.39L267.54 186.46L264.45 182.58C272.17 176.75 278.97 169.77 284.63 161.91L399.07 159.96H286.01L285.99 159.95ZM206.7 198.94C196.62 198.94 186.92 197.31 177.83 194.33L178.93 191.11L179.59 188.97C188.12 191.76 197.23 193.28 206.7 193.28C225.12 193.28 242.21 187.57 256.3 177.82L259.81 182.22C244.75 192.75 226.44 198.94 206.7 198.94ZM262.56 180.22L259.06 175.83C264.4 171.82 269.27 167.21 273.57 162.1L280.85 161.98C275.63 168.88 269.47 175.02 262.57 180.23L262.56 180.22Z" fill="black"/>
<path d="M218.68 52.05L232.56 0.649994L228.47 12.57C221.47 10.94 214.18 10.06 206.69 10.06C185.27 10.06 165.46 17.12 149.48 29.04L146.32 25.07L147.66 24L144.94 20.59L139.6 24.84L142.32 28.25L143.66 27.18L146.79 31.1C139.96 36.57 133.91 42.97 128.79 50.08L14.42 52.03H218.68V52.05ZM139.84 49.91L132.57 50.03C137.24 43.87 142.65 38.3 148.67 33.47L152.17 37.86C147.67 41.46 143.54 45.5 139.84 49.91ZM154.86 35.79L151.36 31.39C166.83 19.88 185.98 13.06 206.7 13.06C213.85 13.06 220.81 13.89 227.5 15.42L225.66 20.8C219.55 19.45 213.21 18.72 206.7 18.72C187.29 18.72 169.36 25.06 154.87 35.78L154.86 35.79Z" fill="black"/>
</g>
<defs>
<clipPath id="clip0_2347_283">
<rect width="418" height="212" fill="white"/>
</clipPath>
</defs>
</svg>
