<svg width="417" height="211" viewBox="0 0 417 211" fill="none" xmlns="http://www.w3.org/2000/svg">
<path d="M53.82 60.67L42.64 102.35H31.28L36.3 83.59L28.76 96.93H16.74L16.38 83.65L11.36 102.35H0L11.24 60.67H25.24L26.2 84.19L39.78 60.67H53.84H53.82Z" fill="white"/>
<path d="M71.89 60.67L60.65 102.35H49.29L60.53 60.67H71.89Z" fill="white"/>
<path d="M85.47 70.14L83.74 76.75H98.09C103.35 76.75 104.49 79.37 103.65 82.41L99.82 96.64C98.74 100.69 95.33 102.36 91.15 102.36H66.51L69.08 92.83H90.25L92.04 86.22H77.69C72.43 86.22 71.29 83.54 72.07 80.5L75.9 66.33C76.98 62.34 80.45 60.67 84.57 60.67H107.78L105.21 70.14H85.47Z" fill="white"/>
<path d="M122.67 70.14L120.94 76.75H135.29C140.55 76.75 141.69 79.37 140.85 82.41L137.02 96.64C135.94 100.69 132.53 102.36 128.35 102.36H103.71L106.28 92.83H127.45L129.24 86.22H114.89C109.63 86.22 108.49 83.54 109.27 80.5L113.1 66.33C114.18 62.34 117.65 60.67 121.77 60.67H144.98L142.41 70.14H122.67Z" fill="white"/>
<path d="M163.46 60.67L152.22 102.35H140.86L152.1 60.67H163.46Z" fill="white"/>
<path d="M203.95 66.39C203.29 68.89 202.57 71.45 201.92 73.95L197.85 89.08C197.19 91.58 196.47 94.14 195.82 96.64C194.74 100.69 191.27 102.36 187.15 102.36H165.08C160.95 102.36 158.38 100.69 159.46 96.64C160.18 94.14 160.84 91.58 161.49 89.08L165.62 73.95C166.28 71.45 167 68.89 167.65 66.39C168.73 62.34 172.14 60.67 176.32 60.67H198.39C202.52 60.67 205.03 62.34 203.95 66.39ZM187.38 87.17L190.43 75.8C190.97 73.89 191.51 72.05 191.99 70.14H177.58L171.48 92.83H185.83C186.37 90.92 186.85 89.02 187.38 87.17Z" fill="white"/>
<path d="M249.29 60.67L238.11 102.35H223.88L217.54 79.19L211.32 102.35H199.96L211.2 60.67H225.79L231.83 83.54L237.99 60.67H249.29Z" fill="white"/>
<path d="M230.26 108.4V150.02H218.84V141.28H203.69L198.94 150.02H187.52L210.06 108.4H230.26ZM218.83 131.83V117.86H216.37L208.8 131.83H218.84H218.83Z" fill="#C1000E"/>
<path d="M252.8 117.86L246.61 140.52H268.79L266.26 150.03H239.81C235.66 150.03 233.08 148.37 234.16 144.32L242.4 114.05C243.42 110.3 246.67 108.4 251.12 108.4H277.51L274.99 117.85H252.81L252.8 117.86Z" fill="#C1000E"/>
<path d="M308.59 117.8H298.19L289.47 149.97H278.05L286.77 117.8H276.31L278.9 108.34H311.18L308.6 117.8H308.59Z" fill="#C1000E"/>
<path d="M325.84 108.4L314.54 150.02H303.12L314.42 108.4H325.84Z" fill="#C1000E"/>
<path d="M366.54 114.11C365.88 116.61 365.16 119.16 364.5 121.66L360.41 136.76C359.75 139.26 359.03 141.82 358.37 144.31C357.29 148.35 353.8 150.02 349.65 150.02H327.47C323.32 150.02 320.74 148.36 321.82 144.31C322.54 141.81 323.2 139.26 323.86 136.76L328.01 121.66C328.67 119.16 329.39 116.61 330.05 114.11C331.13 110.07 334.56 108.4 338.77 108.4H360.95C365.1 108.4 367.62 110.06 366.54 114.11ZM349.89 134.86L352.96 123.5C353.5 121.6 354.04 119.75 354.52 117.85H340.03L333.9 140.51H348.33C348.87 138.61 349.35 136.7 349.89 134.86Z" fill="#C1000E"/>
<path d="M412.1 108.4L400.86 150.02H386.55L380.18 126.89L373.93 150.02H362.51L373.81 108.4H388.48L394.55 131.23L400.74 108.4H412.1Z" fill="#C1000E"/>
<path d="M18.31 34.38H19.92L18.35 40.27H22.01L21.61 41.74H16.34L18.31 34.38Z" fill="#C1000E"/>
<path d="M23.59 37.1C24.02 37.07 24.34 36.96 24.55 36.78C24.76 36.6 24.89 36.36 24.95 36.06H24.3L24.75 34.38H26.45L26.07 35.8C25.89 36.49 25.6 36.99 25.21 37.29C24.82 37.59 24.31 37.75 23.69 37.76L23.59 37.1Z" fill="#C1000E"/>
<path d="M30.72 34.33H32.29L33.47 41.74H31.8L31.57 40.09H28.44L27.32 41.74H25.56L30.74 34.33H30.72ZM31.36 38.65L31.02 36.22L29.39 38.65H31.36Z" fill="#C1000E"/>
<path d="M36.35 34.38H38.51C39.23 34.38 39.82 34.47 40.29 34.64C40.76 34.81 41.13 35.04 41.41 35.32C41.95 35.85 42.21 36.57 42.21 37.48C42.21 38.03 42.11 38.56 41.9 39.05C41.69 39.54 41.39 39.99 40.99 40.39C40.55 40.83 40 41.17 39.36 41.4C38.72 41.63 37.97 41.75 37.11 41.75H34.36L36.35 34.39V34.38ZM37.31 40.28C37.8 40.28 38.27 40.21 38.7 40.05C39.13 39.9 39.49 39.68 39.79 39.38C40.03 39.14 40.21 38.86 40.34 38.55C40.47 38.23 40.53 37.9 40.53 37.54C40.53 37.05 40.39 36.66 40.1 36.37C39.94 36.21 39.72 36.08 39.44 35.98C39.16 35.88 38.82 35.83 38.39 35.83H37.6L36.39 40.27H37.31V40.28Z" fill="#C1000E"/>
<path d="M44.58 34.38H47.28C47.83 34.38 48.3 34.44 48.68 34.56C49.06 34.68 49.38 34.87 49.63 35.11C50.01 35.49 50.2 35.98 50.2 36.59C50.2 37.26 50 37.82 49.6 38.27C49.2 38.72 48.6 39.04 47.81 39.22L49.07 41.73H47.22L46.08 39.37H44.86L44.23 41.73H42.6L44.59 34.37L44.58 34.38ZM46.7 37.95C46.95 37.95 47.19 37.92 47.41 37.87C47.63 37.82 47.82 37.74 47.98 37.64C48.14 37.54 48.27 37.41 48.36 37.26C48.45 37.11 48.5 36.93 48.5 36.73C48.5 36.49 48.42 36.3 48.27 36.14C48.07 35.94 47.71 35.84 47.19 35.84H45.82L45.25 37.94H46.7V37.95Z" fill="#C1000E"/>
<path d="M52.28 34.38H57.82L57.43 35.82H53.51L53.11 37.32H56.55L56.16 38.74H52.72L52.3 40.3H56.28L55.89 41.74H50.3L52.29 34.38H52.28ZM55.94 31.94L57.3 32.54L55.6 33.8H54.25L55.95 31.94H55.94Z" fill="#C1000E"/>
<path d="M59.32 34.38H60.82L62.98 39.06L64.25 34.38H65.86L63.87 41.74H62.48L60.24 36.91L58.94 41.74H57.33L59.32 34.38Z" fill="#C1000E"/>
<path d="M70.09 34.33H71.66L72.84 41.74H71.17L70.94 40.09H67.81L66.69 41.74H64.93L70.11 34.33H70.09ZM70.74 38.65L70.4 36.22L68.77 38.65H70.74Z" fill="#C1000E"/>
<path d="M75.74 34.38H77.37L75.78 40.27H79.47L79.07 41.74H73.75L75.74 34.38Z" fill="#C1000E"/>
<path d="M82.44 34.38H84.07L82.08 41.74H80.45L82.44 34.38Z" fill="#C1000E"/>
<path d="M85.92 34.38H87.42L89.58 39.06L90.85 34.38H92.46L90.47 41.74H89.08L86.84 36.91L85.54 41.74H83.93L85.92 34.38Z" fill="#C1000E"/>
<path d="M94.24 34.38H99.78L99.39 35.82H95.47L95.07 37.32H98.51L98.12 38.74H94.68L94.26 40.3H98.24L97.85 41.74H92.26L94.25 34.38H94.24Z" fill="#C1000E"/>
<path d="M99.69 40.06H101.4L100.94 41.74H99.23L99.69 40.06Z" fill="#C1000E"/>
<path d="M103.06 40.06H104.77L104.31 41.74H102.6L103.06 40.06Z" fill="#C1000E"/>
<path d="M106.44 40.06H108.15L107.69 41.74H105.98L106.44 40.06Z" fill="#C1000E"/>
<path d="M306.21 91.35H311.75L311.36 92.79H307.44L307.04 94.29H310.48L310.09 95.71H306.65L306.23 97.26H310.21L309.82 98.7H304.23L306.22 91.35H306.21Z" fill="white"/>
<path d="M313.25 91.35H314.75L316.91 96.03L318.18 91.35H319.79L317.8 98.7H316.41L314.17 93.88L312.87 98.7H311.26L313.25 91.35Z" fill="white"/>
<path d="M324.75 91.35H327.1C327.63 91.35 328.08 91.41 328.46 91.52C328.84 91.63 329.16 91.83 329.43 92.09C329.81 92.47 330 92.97 330 93.6C330 94.06 329.91 94.46 329.72 94.82C329.53 95.18 329.28 95.48 328.96 95.72C328.64 95.97 328.26 96.15 327.82 96.28C327.38 96.41 326.91 96.47 326.4 96.47H324.99L324.39 98.7H322.76L324.75 91.35ZM326.48 95.06C327.02 95.06 327.46 94.95 327.79 94.72C328.12 94.49 328.29 94.17 328.29 93.75C328.29 93.51 328.21 93.3 328.05 93.14C327.94 93.03 327.8 92.95 327.64 92.89C327.48 92.84 327.28 92.81 327.03 92.81H325.97L325.37 95.06H326.48Z" fill="white"/>
<path d="M331.93 91.35H334.63C335.18 91.35 335.65 91.41 336.03 91.53C336.41 91.65 336.73 91.84 336.98 92.08C337.36 92.46 337.55 92.95 337.55 93.56C337.55 94.23 337.35 94.78 336.95 95.24C336.55 95.69 335.95 96.01 335.16 96.19L336.42 98.7H334.57L333.43 96.35H332.21L331.58 98.7H329.95L331.94 91.35H331.93ZM334.05 94.91C334.3 94.91 334.54 94.88 334.76 94.83C334.98 94.78 335.17 94.7 335.33 94.6C335.49 94.5 335.62 94.37 335.71 94.22C335.8 94.07 335.85 93.89 335.85 93.69C335.85 93.45 335.77 93.26 335.62 93.1C335.42 92.9 335.06 92.8 334.54 92.8H333.17L332.6 94.9H334.05V94.91Z" fill="white"/>
<path d="M339.63 91.35H345.16L344.77 92.79H340.85L340.45 94.29H343.89L343.5 95.71H340.06L339.64 97.26H343.62L343.23 98.7H337.64L339.63 91.35Z" fill="white"/>
<path d="M346.67 91.35H348.36L349.43 94.46L352.19 91.35H354.07L352.08 98.7H350.43L351.72 93.9L348.82 97.04H348.78L347.59 93.93L346.3 98.7H344.67L346.66 91.35H346.67Z" fill="white"/>
<path d="M355.93 91.35H357.56L355.57 98.7H353.94L355.93 91.35Z" fill="white"/>
<path d="M359.41 91.35H364.95L364.56 92.79H360.64L360.24 94.29H363.68L363.29 95.71H359.85L359.43 97.26H363.41L363.02 98.7H357.43L359.42 91.35H359.41ZM360.82 89.51L362.24 88.91L362.93 90.77H361.83L360.82 89.51Z" fill="white"/>
<path d="M366.45 91.35H369.15C369.7 91.35 370.17 91.41 370.55 91.53C370.93 91.65 371.25 91.84 371.5 92.08C371.88 92.46 372.07 92.95 372.07 93.56C372.07 94.23 371.87 94.78 371.47 95.24C371.07 95.69 370.47 96.01 369.68 96.19L370.94 98.7H369.09L367.95 96.35H366.73L366.1 98.7H364.47L366.46 91.35H366.45ZM368.56 94.91C368.81 94.91 369.05 94.88 369.27 94.83C369.49 94.78 369.68 94.7 369.84 94.6C370 94.5 370.13 94.37 370.22 94.22C370.31 94.07 370.36 93.89 370.36 93.69C370.36 93.45 370.28 93.26 370.13 93.1C369.93 92.9 369.57 92.8 369.05 92.8H367.68L367.11 94.9H368.56V94.91Z" fill="white"/>
<path d="M374.14 91.35H379.68L379.29 92.79H375.37L374.97 94.29H378.41L378.02 95.71H374.58L374.16 97.26H378.14L377.75 98.7H372.16L374.15 91.35H374.14Z" fill="white"/>
<path d="M384.36 91.35H385.99L384.4 97.23H388.09L387.69 98.7H382.37L384.36 91.35Z" fill="white"/>
<path d="M391.05 91.35H392.68L390.69 98.7H389.06L391.05 91.35Z" fill="white"/>
<path d="M395.33 98.64C394.91 98.51 394.54 98.32 394.22 98.06C393.89 97.8 393.63 97.46 393.43 97.06C393.23 96.66 393.13 96.18 393.13 95.64C393.13 95.07 393.25 94.51 393.48 93.99C393.71 93.46 394.03 92.99 394.44 92.58C394.85 92.17 395.33 91.84 395.9 91.6C396.46 91.35 397.08 91.23 397.75 91.23C398.14 91.23 398.49 91.27 398.81 91.34C399.13 91.41 399.41 91.5 399.66 91.62C399.91 91.74 400.12 91.87 400.31 92.02C400.5 92.17 400.65 92.34 400.78 92.5L399.57 93.56C399.35 93.32 399.09 93.12 398.78 92.96C398.47 92.8 398.09 92.71 397.62 92.71C397.22 92.71 396.86 92.79 396.51 92.95C396.16 93.11 395.87 93.32 395.62 93.58C395.37 93.84 395.17 94.15 395.03 94.49C394.89 94.83 394.81 95.2 394.81 95.59C394.81 95.88 394.86 96.13 394.96 96.35C395.06 96.57 395.19 96.75 395.37 96.9C395.54 97.05 395.74 97.16 395.97 97.24C396.2 97.32 396.44 97.36 396.7 97.36C396.99 97.36 397.24 97.33 397.46 97.28C397.68 97.22 397.86 97.16 398.03 97.08L398.38 95.88H396.74L397.12 94.48H400.34L399.29 98.15C398.92 98.35 398.52 98.52 398.09 98.65C397.66 98.78 397.16 98.84 396.6 98.84C396.18 98.84 395.76 98.78 395.34 98.65L395.33 98.64Z" fill="white"/>
<path d="M402.79 91.35H404.29L406.45 96.03L407.72 91.35H409.33L407.34 98.7H405.95L403.71 93.88L402.41 98.7H400.8L402.79 91.35Z" fill="white"/>
<path d="M411.11 91.35H416.64L416.25 92.79H412.33L411.93 94.29H415.37L414.98 95.71H411.54L411.12 97.26H415.1L414.71 98.7H409.12L411.11 91.35Z" fill="white"/>
<path d="M280.67 95.02C280.49 93.7 280.27 92.38 280.02 91.09L281 90.9C281.25 92.21 281.47 93.55 281.65 94.88L280.66 95.02H280.67ZM278.45 84.51C278.08 83.24 277.68 81.96 277.25 80.72L278.2 80.39C278.64 81.65 279.05 82.95 279.42 84.24L278.46 84.52L278.45 84.51ZM274.75 74.43C274.21 73.23 273.63 72.02 273.02 70.85L273.91 70.39C274.52 71.58 275.11 72.8 275.66 74.01L274.75 74.42V74.43ZM269.64 64.99C268.93 63.87 268.18 62.76 267.41 61.69L268.22 61.11C268.99 62.19 269.75 63.32 270.48 64.45L269.64 64.99ZM263.24 56.37C262.38 55.37 261.48 54.38 260.57 53.42L261.29 52.73C262.22 53.7 263.13 54.7 264 55.72L263.24 56.37ZM255.67 48.74C254.68 47.87 253.65 47.02 252.6 46.2L253.22 45.41C254.28 46.24 255.32 47.11 256.33 47.99L255.67 48.74ZM247.11 42.26C246 41.54 244.86 40.84 243.71 40.18L244.21 39.31C245.37 39.98 246.52 40.69 247.65 41.42L247.11 42.26ZM237.7 37.05C236.49 36.49 235.26 35.96 234.04 35.47L234.41 34.54C235.65 35.04 236.9 35.58 238.12 36.14L237.7 37.05Z" fill="white"/>
<path d="M173.93 174.64L174.14 174.19L173.92 174.64C172.69 174.07 171.48 173.47 170.32 172.86L170.79 171.98C171.94 172.59 173.14 173.18 174.33 173.74L173.93 174.66V174.64ZM164.41 169.38C163.28 168.65 162.16 167.88 161.08 167.09L161.67 166.28C162.73 167.05 163.84 167.81 164.95 168.53L164.41 169.37V169.38ZM155.72 162.81C154.71 161.93 153.72 161.01 152.75 160.07L153.45 159.35C154.4 160.28 155.38 161.18 156.38 162.06L155.72 162.81ZM148.06 155.07C147.18 154.04 146.33 152.99 145.52 151.93L146.31 151.32C147.11 152.36 147.95 153.4 148.82 154.42L148.06 155.07ZM141.6 146.3C140.88 145.17 140.19 144 139.53 142.83L140.4 142.34C141.05 143.49 141.73 144.64 142.44 145.76L141.6 146.3ZM136.45 136.71C135.9 135.49 135.38 134.24 134.9 132.99L135.83 132.63C136.31 133.86 136.82 135.1 137.36 136.31L136.45 136.72V136.71ZM132.71 126.49C132.34 125.21 132 123.9 131.7 122.59L132.67 122.36C132.97 123.65 133.31 124.95 133.67 126.22L132.71 126.5V126.49ZM130.45 115.84C130.27 114.51 130.12 113.16 130 111.83L131 111.75C131.11 113.06 131.26 114.39 131.44 115.71L130.45 115.85V115.84Z" fill="white"/>
<path d="M235.46 23.23L234.94 25.17C265.76 36.32 288.37 64.75 291 98.7H293C290.36 63.82 267.12 34.61 235.46 23.22V23.23Z" fill="white"/>
<path d="M121.04 112.02H119.03C121.45 143.85 141.02 170.97 168.5 184.11L169.03 182.15C142.4 169.27 123.44 142.93 121.04 112.02Z" fill="white"/>
<path d="M285.31 159.3H185.2L171.32 210.7L176.18 196.52C185.58 199.61 195.61 201.29 206.03 201.29C226.47 201.29 245.43 194.86 261.01 183.92L264.2 187.92L262.86 188.99L265.58 192.4L270.92 188.15L268.2 184.74L266.86 185.81L263.77 181.93C271.49 176.1 278.29 169.12 283.95 161.26L398.39 159.31H285.33L285.31 159.3ZM206.02 198.29C195.94 198.29 186.24 196.66 177.15 193.68L178.25 190.46L178.91 188.32C187.44 191.11 196.55 192.63 206.02 192.63C224.44 192.63 241.53 186.92 255.62 177.17L259.13 181.57C244.07 192.1 225.76 198.29 206.02 198.29ZM261.88 179.57L258.38 175.18C263.72 171.17 268.59 166.56 272.89 161.45L280.17 161.33C274.95 168.23 268.79 174.37 261.89 179.58L261.88 179.57Z" fill="white"/>
<path d="M218 51.4L231.88 0L227.79 11.92C220.79 10.29 213.5 9.41 206.01 9.41C184.59 9.41 164.78 16.47 148.8 28.39L145.64 24.42L146.98 23.35L144.26 19.94L138.92 24.19L141.64 27.6L142.98 26.53L146.11 30.45C139.28 35.92 133.23 42.32 128.11 49.43L13.74 51.38H218V51.4ZM139.16 49.26L131.89 49.38C136.56 43.22 141.97 37.65 147.99 32.82L151.49 37.21C146.99 40.81 142.86 44.85 139.16 49.26ZM154.18 35.14L150.68 30.74C166.15 19.23 185.3 12.41 206.02 12.41C213.17 12.41 220.13 13.24 226.82 14.77L224.98 20.15C218.87 18.8 212.53 18.07 206.02 18.07C186.61 18.07 168.68 24.41 154.19 35.13L154.18 35.14Z" fill="white"/>
</svg>
